<svg id="Layer_1" data-name="Layer 1" xmlns="http://www.w3.org/2000/svg" xmlns:xlink="http://www.w3.org/1999/xlink" viewBox="0 0 473.52 440.59"><defs><style>.cls-1,.cls-3{fill-rule:evenodd;}.cls-1{fill:url(#linear-gradient);}.cls-2,.cls-3{fill:#fff;}</style><linearGradient id="linear-gradient" x1="84.17" y1="409.13" x2="557.69" y2="409.13" gradientUnits="userSpaceOnUse"><stop offset="0" stop-color="#fb6140"/><stop offset="1" stop-color="#f9ed32"/></linearGradient></defs><path class="cls-1" d="M535.13,504.82c-10-4.09-20.94-8.35-32.28-11.28h47.4v-3.6H95v3.6h46.17l-20.73,6-22.08,8.4-14.16,6.24a45.62,45.62,0,0,0,20.88,9.6c6,1.05,12.8-2.41,17.52,0,2.31,1.17,3,3.29,4.32,5.52,4.46,7.64,7.86,16.16,18,18.24a14.63,14.63,0,0,0,9.6-1.44l9.6-8.16c7.67,1.13,12.44,15.35,24.24,17.52,16.62,3,23.56-14.3,40.32-11,14.73,2.86,21.83,15.49,37.2,18.48,22.53,4.38,33.56-13.79,51.84-16.8,18.08-3,32.15,14.46,49.2,17.28,19.07,3.15,31.52-15.19,45.84-18.72,16.58-4.1,24.33,13.35,39.6,11,12.4-1.88,15.8-11.79,24.24-17.52,8.28.77,9.56,11.73,20.88,9.6,10-1.89,13.36-10.7,17.76-18.24,1.32-2.25,2.19-4.87,4.56-6,4.9-2.34,12.57,1.17,18.24,0,8.12-1.68,13-6.1,19.44-8.88l.24-.48C551.56,509.7,542.44,507.8,535.13,504.82ZM496,533.38c-4.66.92-9.9-11.42-20.64-9.36-9.77,1.87-18.61,19.45-26.88,17.52-10.95-2.57-18.63-14-34.56-11.28-17.69,3-24.43,16.28-41,19.2-8.28,1.45-14.34-3.3-19-6-8.42-4.94-16.41-9.28-27.84-11.28-24.4-4.27-35,16.89-54,17.52-13.1.43-25.82-15-38.64-18.48-18.52-5.12-27.26,7.63-39.84,10.32-7.5,1.6-16.07-13.62-22.56-16.32-14-5.85-19.5,9-24.72,8.4-2.61-.31-3.75-4.67-4.8-6.72-3.38-6.63-7.3-10.33-12-15.36l-.48-.24c5.92-4.53,15.84-6.29,23.52-8.64a242,242,0,0,1,47.36-9.12H429.14c16.47,1,32.14,1.63,46.71,5.28,8.64,2.16,17.33,4.11,25.2,7.2l12,5,.24.48C504.6,515.12,501,531.83,496,533.38Zm54.24-168.72H527.93c-1-10.22-6.08-17.15-8.4-26.4-1.18-4.73-.27-10.15-1.2-15.6-1.29-7.6-2.85-14-6.24-19.44A40.23,40.23,0,0,0,502,292.42l-7.44-5c-8.09-11.56-11.48-25.4-22.32-34.08-4.53-3.64-9.48-7.38-15.12-9.84l-9.36-3.6q-4.66-5.16-9.36-10.32c-8.88-7.15-17.44-14.15-29-18.72-6.89-2.72-14.51-3.88-22.8-5.28l-12.48-.48c-4.79-1.44-9.52-6-14.4-8.16-13.21-5.77-34.63-10.46-53.76-6.72a112.09,112.09,0,0,0-23.76,7l-13.92,7.68L253.61,206c-8.31,1.43-15.73,2.71-22.56,5.52-9.84,4.05-17.75,10.13-25.44,16.32q-5.38,5.76-10.8,11.52l-12.48,5.52a113.4,113.4,0,0,0-14.16,10.32c-6.36,5.14-11.74,14-15.6,21.6l-5,10.56c-1.79,2.42-5,3.52-7.44,5.28a38.86,38.86,0,0,0-12.48,15.84c-2.5,5.79-2.86,12.24-4.08,19.68V338c-1,4.87-3.74,9-5.52,13.2s-2.31,8.55-3.6,13.2v.24H95v3.6H550.25Zm-421.68,0,1.92-7.44v-.48l5.28,7.2a7.4,7.4,0,0,0,2.06.72Zm24.48,0c-8.26-12.63-20-24.78-14.16-45.84,2.07-7.42,5.47-12.49,11.28-16.08,12.05,16.79,23.31,33.38,37.68,47.76,3.48,3.48,11,12.5,15.36,14.16Zm273.84,0h-211q-9-9.84-18-19.68c-8.78-11.07-17.16-22.1-25.44-33.84-3.52-5-8.91-10.87-11-16.8-1.64-4.6,2.93-10.19,4.56-13,6-10.19,15.86-24.67,29.52-26.64,10.31,36.62,35.24,78.72,63.6,97.2h.24c-2.56-8-9-15.57-13.2-22.56a460.88,460.88,0,0,1-28.56-56.16c-3.19-7.47-9-18.19-10.08-26.64,8.19-14.22,32.91-27.75,55.68-27.6.64,29.19,7.84,60.75,17,82.56q4.44,9.36,8.88,18.72l5.28,8.88.48.24-7.44-32.88c-4-16-5.36-31.75-8.4-49.44-1.26-7.39-.36-15.45-1.68-23.52l-.24-7c1.1-3.51,12.59-7.33,16.56-8.88,19.87-7.74,46.21-4.71,62.88,3.36,3.15,1.52,6.4,2.64,8.4,5.28.74,4-.07,9.49-.72,13.44l-1.68,20.64c-4.7,27.26-7.22,53.83-15.12,78v.72h.24l6-9.36c6.23-10.62,10.76-23.38,14.64-36s5.57-26.23,8.16-40.32l2.64-23.76c3.26-1.83,11.35.3,14.88,1.2,13.85,3.51,23.32,8.82,32.4,16.8,2.13,1.86,8.83,6.05,8.16,10.08-1.32,8-7,18.37-10.08,25.68-8.39,19.87-17.32,38.77-28.08,56.4q-6.82,11-13.68,22.08c25.9-16.5,42.58-44.57,55.2-74.4,3.07-7.25,6.89-15,8.88-23A48.31,48.31,0,0,1,465.05,266c6.26,6.26,13.61,15.84,16.32,25.2,1.06,3.64-9.44,16.7-11.28,19.44-8.41,12.55-17.63,24.08-26.88,35.76q-7.18,8.16-14.4,16.32Zm69.12-9.6-5.76,8.64-.72.72v.24H438.89c15.41-11.1,28.27-26.79,39.36-42.24,4.41-6.14,11.05-12.69,13.92-19.92,3.71,1.73,5.87,5.65,7.92,9.12C509.37,327.25,504,342.3,496,355.06Zm9.84,9.6,5.28-7.92v-.48c1.48,1.64,2.34,5.81,2.64,8.4ZM449,577.54a271.71,271.71,0,0,1-81.6,34.32c-11.87,2.91-23.84,2.52-37.44,4.56-11.83,1.77-26.62.45-37.2-1.44-13.09-2.35-25.48-4.51-37.2-8.16a265.07,265.07,0,0,1-67.92-32.64l-27.84-20.64-1-1h-.24c.83,5.5,7.06,10.32,10.08,14.16,10,12.69,22.76,22.44,36.72,31.2,18,11.26,38.4,19.27,61.92,25.2l22.32,3.6c10.28,1.9,27.8,3.8,39.6,1.92s22.57-.8,33.12-3.12c37.71-8.31,64.5-18.93,90.24-38.64a131.36,131.36,0,0,0,24.48-24.48c2.22-2.88,5.27-5.55,6.72-9.12l.48-.48-.72-.48C475.34,561.44,459.77,570.77,449,577.54Zm-31,12.24c10.05-5.11,21-10.89,27.6-19.44L431,577.78,402.89,589.3c-17.46,6.79-35.83,9-56.88,12.72-10.72,1.91-29.75,3-41.52,1l-25-3.12c-20.92-4.68-39.87-9.87-57.6-17.52L196.49,570.1l-.48.72,17.76,13.44c10.42,6.52,22.77,11.58,35.52,15.6C301.39,616.27,376,611.17,418,589.78Z" transform="translate(-84.17 -188.84)"/><path class="cls-2" d="M141.12,436.89l-7.35-8.23-7.35,6.52,7.31,8.31Zm-26.59-34.74H117a59.84,59.84,0,0,1,18.37,2.46,26.27,26.27,0,0,1,12.12,7.79h-5.28c-.35,0-.71,0-1.08,0h-1a38.8,38.8,0,0,0-12.94,2,30,30,0,0,0-9.66,5.39,23.28,23.28,0,0,0-6,7.75,21,21,0,0,0-2.09,9.14,23.38,23.38,0,0,0,.14,2.49,19.13,19.13,0,0,0,.46,2.52,22.91,22.91,0,0,0,3.62,7.69,21.37,21.37,0,0,0,6.55,6,28.18,28.18,0,0,0,6,2.39,25.61,25.61,0,0,0,7,.95,38.62,38.62,0,0,0,10.9-1.77,60.54,60.54,0,0,0,13-5.86l-5-8.51a52.06,52.06,0,0,1-10.52,4.85,28.59,28.59,0,0,1-8.41,1.47,15.94,15.94,0,0,1-6-1,13.27,13.27,0,0,1-4.33-2.72,11.2,11.2,0,0,1-2.65-3.92,12.36,12.36,0,0,1-.89-4.61,11.18,11.18,0,0,1,1.49-5.6,14,14,0,0,1,4.27-4.56,22.87,22.87,0,0,1,6.72-3,32.37,32.37,0,0,1,8.79-1.11h1.07a20.68,20.68,0,0,0,2,5.68,14,14,0,0,0,3.73,4.46,18,18,0,0,0,5.91,2.94,30.67,30.67,0,0,0,8.58,1.11h2.71v-9.86h-2.71a28.26,28.26,0,0,1-4-.24,8.85,8.85,0,0,1-2.74-.77,4.71,4.71,0,0,1-1.71-1.35,6.37,6.37,0,0,1-1-2h7.48v-5.68a20.61,20.61,0,0,0-4.64-10.24,31.51,31.51,0,0,0-9.63-7.63A53.06,53.06,0,0,0,132.14,394a74.33,74.33,0,0,0-16-1.67Z" transform="translate(-84.17 -188.84)"/><path class="cls-2" d="M193.59,436.49v-9.86h-7.15a20.05,20.05,0,0,0,1.75-8.26,24.51,24.51,0,0,0-1.06-7,33.35,33.35,0,0,0-3.27-7.41c-.3-.53-.62-1.08-1-1.63s-.77-1.18-1.25-1.87L173.52,406c.8,1.25,1.5,2.42,2.11,3.52a30.88,30.88,0,0,1,1.53,3.14,17,17,0,0,1,.91,2.88,13.08,13.08,0,0,1,.3,2.75,9.76,9.76,0,0,1-1.07,4.53,10.14,10.14,0,0,1-3.3,3.61l0,0a1.1,1.1,0,0,1-.18.14l-.18.1h-10v9.86Zm-2.1,13.28L184.57,442l-6.64,5.92L172.65,442l-7,6.2,6.92,7.79,6.63-6,5.29,6Z" transform="translate(-84.17 -188.84)"/><path class="cls-2" d="M202.5,383.86a81.24,81.24,0,0,1,2.74,8.29,73.1,73.1,0,0,1,1.75,8.13,54.92,54.92,0,0,1,.6,7.87,37.64,37.64,0,0,1-1.35,10.47,24.13,24.13,0,0,1-3.9,8h-10v9.86h30.53v-9.86h-9a41.94,41.94,0,0,0,2.68-8.62,50.41,50.41,0,0,0,.94-9.9c0-.74,0-1.85-.12-3.32a48.5,48.5,0,0,0-.72-5.6q-.6-3.4-1.89-8a109,109,0,0,0-3.64-10.6Z" transform="translate(-84.17 -188.84)"/><path class="cls-2" d="M246.3,382.67,239,374.44,231.6,381l7.31,8.27Zm-24.36,53.82h61.81v-9.86H277a35.47,35.47,0,0,0-4.11-13.45,33.73,33.73,0,0,0-9.24-10.7,45,45,0,0,0-14.23-7.07,65.05,65.05,0,0,0-19.09-2.56.6.6,0,0,0-.31.15,2.79,2.79,0,0,0-.5,1.08,27.07,27.07,0,0,0-.68,2.92q-.37,2-.85,5.7h2.34a58.05,58.05,0,0,1,15,1.75,35.87,35.87,0,0,1,11.09,4.91,24.91,24.91,0,0,1,7.26,7.55,26,26,0,0,1,3.45,9.72H221.94Z" transform="translate(-84.17 -188.84)"/><path class="cls-2" d="M293,383.86a83.23,83.23,0,0,1,4.53,16.42q.28,2.07.42,4.05c.09,1.33.14,2.6.14,3.82a37.64,37.64,0,0,1-1.35,10.47,23.94,23.94,0,0,1-3.9,8h-10v9.86h14.31l1.47-1.47a26.46,26.46,0,0,0,4-5.23,34,34,0,0,0,2.9-6.34,43.66,43.66,0,0,0,1.79-7.29,51.3,51.3,0,0,0,.62-8.05c0-.74-.07-1.86-.2-3.34s-.42-3.36-.86-5.64-1.07-5-1.9-8-2-6.59-3.4-10.54Z" transform="translate(-84.17 -188.84)"/><path class="cls-2" d="M312.33,383.86a88.11,88.11,0,0,1,4.09,13.24A55.19,55.19,0,0,1,317.78,409v.4c0,.19,0,.4,0,.64s0,.46,0,.67V411a48.51,48.51,0,0,1-2.09,12,68,68,0,0,1-5.19,12.2l8.75,4.65a74.63,74.63,0,0,0,5.92-14.17,59.75,59.75,0,0,0,2.43-14.25c0-.37,0-.77,0-1.19V409a65.45,65.45,0,0,0-1.51-13.71,97,97,0,0,0-4.57-14.95Z" transform="translate(-84.17 -188.84)"/><path class="cls-2" d="M375.32,403.9a12.06,12.06,0,0,1,3.85,2.62,12.7,12.7,0,0,1,2.63,3.9,11.89,11.89,0,0,1,1,4.77,12,12,0,0,1-.95,4.73,12.23,12.23,0,0,1-2.63,3.87,12.37,12.37,0,0,1-3.87,2.6,11.67,11.67,0,0,1-4.71,1,11.8,11.8,0,0,1-4.73-1,12.08,12.08,0,0,1-3.88-2.6,12.37,12.37,0,0,1-2.62-3.87,12,12,0,0,1,0-9.5,12.5,12.5,0,0,1,2.62-3.9,12,12,0,0,1,3.88-2.62,11.8,11.8,0,0,1,4.73-1A11.67,11.67,0,0,1,375.32,403.9Zm-13.3-9a22.13,22.13,0,0,0-11.75,11.75,22.16,22.16,0,0,0-.95,14.41,22,22,0,0,0,5.66,9.72,22.07,22.07,0,0,0,9.74,5.68,22.12,22.12,0,0,0,14.47-.93,22,22,0,0,0,11.71-11.71,22.27,22.27,0,0,0,0-17.21,22,22,0,0,0-4.73-7,22.67,22.67,0,0,0-7-4.71,22.07,22.07,0,0,0-17.13,0Zm20.59-12.34-6.92-7.75-6.63,5.92-5.29-5.92-7,6.2,6.92,7.79,6.64-6,5.28,6Z" transform="translate(-84.17 -188.84)"/><path class="cls-2" d="M417.47,427.43l.76-.8a13.06,13.06,0,0,1-4.73-.85,11.89,11.89,0,0,1-3.88-2.39,11.15,11.15,0,0,1-2.6-3.61,10.88,10.88,0,0,1-1-4.59,11.89,11.89,0,0,1,1-4.77,12.17,12.17,0,0,1,2.62-3.9,12.3,12.3,0,0,1,3.88-2.62,12,12,0,0,1,9.44,0,12.63,12.63,0,0,1,3.89,2.64,12.49,12.49,0,0,1,2.65,3.89,11.72,11.72,0,0,1,1,4.74,48.3,48.3,0,0,1-1.27,11.44Zm26.95-.8h-5.2a56.76,56.76,0,0,0,1.07-11.44,21.63,21.63,0,0,0-1.73-8.63,22,22,0,0,0-4.73-7,22.67,22.67,0,0,0-7-4.71,22.07,22.07,0,0,0-17.13,0,22.79,22.79,0,0,0-7,4.71,22.16,22.16,0,0,0-4.73,7,21.67,21.67,0,0,0-1.72,8.61,20.64,20.64,0,0,0,1.72,8.46,21.13,21.13,0,0,0,11.71,11.23,22.74,22.74,0,0,0,8.59,1.61h6.08a17.81,17.81,0,0,1-4.1,3.44,22.44,22.44,0,0,1-5,2.27,32.61,32.61,0,0,1-5.79,1.23,52,52,0,0,1-6.32.38v9.85a59.14,59.14,0,0,0,7.18-.43,46.17,46.17,0,0,0,6.87-1.39,35.5,35.5,0,0,0,6.32-2.49,27.75,27.75,0,0,0,5.55-3.72,28.69,28.69,0,0,0,3.86-4.07,30,30,0,0,0,3.14-5.07h8.42Zm-19.59-39.87-1-3.93L417,384.62a2.94,2.94,0,0,1-2.13-.42,2.75,2.75,0,0,1-1.25-1.73,2.58,2.58,0,0,1,.31-2.15,3,3,0,0,1,1.87-1.35,2.78,2.78,0,0,1,1.91.22,3.51,3.51,0,0,1,1.51,1.37l3.46-1.95a6.69,6.69,0,0,0-1.49-1.84,7.83,7.83,0,0,0-1.93-1.24A7.37,7.37,0,0,0,417,375a6.37,6.37,0,0,0-2.26.16,6.64,6.64,0,0,0-2.53,1.19,7.25,7.25,0,0,0-1.78,2,6.69,6.69,0,0,0-.92,2.48,6.49,6.49,0,0,0,.14,2.7,6.15,6.15,0,0,0,1.27,2.67l-2.42.59,1,3.9Z" transform="translate(-84.17 -188.84)"/><path class="cls-2" d="M453.45,383.86A83.23,83.23,0,0,1,458,400.28q.27,2.07.42,4.05c.09,1.33.13,2.6.13,3.82a37.64,37.64,0,0,1-1.35,10.47,24.12,24.12,0,0,1-3.89,8h-10v9.86h14.31l1.47-1.47a26.5,26.5,0,0,0,4-5.23,34,34,0,0,0,2.9-6.34,43.66,43.66,0,0,0,1.79-7.29,51.31,51.31,0,0,0,.61-8.05c0-.74-.06-1.86-.2-3.34s-.41-3.36-.85-5.64-1.07-5-1.91-8-2-6.59-3.4-10.54Z" transform="translate(-84.17 -188.84)"/><path class="cls-2" d="M493.32,427.43l.75-.8a13.09,13.09,0,0,1-4.73-.85,12,12,0,0,1-3.87-2.39,11.33,11.33,0,0,1-2.61-3.61,11,11,0,0,1-.95-4.59,12.05,12.05,0,0,1,.95-4.77,12.34,12.34,0,0,1,6.5-6.52,12,12,0,0,1,9.44,0,12.47,12.47,0,0,1,6.54,6.53,11.73,11.73,0,0,1,1,4.74A48.26,48.26,0,0,1,505,426.63Zm26.95-.8h-5.21a56,56,0,0,0,1.07-11.44,21.46,21.46,0,0,0-1.73-8.63,22,22,0,0,0-4.73-7,22.75,22.75,0,0,0-7-4.71,22.07,22.07,0,0,0-17.13,0,22.67,22.67,0,0,0-7,4.71,22,22,0,0,0-4.73,7,21.67,21.67,0,0,0-1.73,8.61,20.65,20.65,0,0,0,1.73,8.46,21.08,21.08,0,0,0,4.71,6.76,21.5,21.5,0,0,0,7,4.47,22.66,22.66,0,0,0,8.58,1.61h6.08a17.76,17.76,0,0,1-4.09,3.44,22.52,22.52,0,0,1-5,2.27,32.31,32.31,0,0,1-5.78,1.23,52,52,0,0,1-6.32.38v9.85a59,59,0,0,0,7.17-.43,46.3,46.3,0,0,0,6.88-1.39,35.8,35.8,0,0,0,6.32-2.49,27.69,27.69,0,0,0,5.54-3.72,28.13,28.13,0,0,0,3.86-4.07,29.39,29.39,0,0,0,3.14-5.07h8.43Zm-19.6-39.87-1-3.93-6.88,1.79a2.94,2.94,0,0,1-2.13-.42,2.79,2.79,0,0,1-1.25-1.73,2.58,2.58,0,0,1,.32-2.15,3,3,0,0,1,1.87-1.35,2.79,2.79,0,0,1,1.91.22,3.62,3.62,0,0,1,1.51,1.37l3.45-1.95a6.52,6.52,0,0,0-1.49-1.84,7.77,7.77,0,0,0-1.92-1.24,7.37,7.37,0,0,0-2.19-.57,6.43,6.43,0,0,0-2.27.16,6.67,6.67,0,0,0-2.52,1.19,7.13,7.13,0,0,0-1.79,2,6.67,6.67,0,0,0-.91,2.48,6.33,6.33,0,0,0,.14,2.7,6,6,0,0,0,1.27,2.67l-2.43.59,1,3.9Z" transform="translate(-84.17 -188.84)"/><path class="cls-2" d="M529.29,383.86a83.23,83.23,0,0,1,4.53,16.42q.28,2.07.42,4.05c.09,1.33.14,2.6.14,3.82A37.64,37.64,0,0,1,533,418.62a23.94,23.94,0,0,1-3.9,8h-10v9.86h14.31L534.9,435a26.46,26.46,0,0,0,4-5.23,34,34,0,0,0,2.9-6.34,43.66,43.66,0,0,0,1.79-7.29,51.3,51.3,0,0,0,.62-8.05c0-.74-.07-1.86-.2-3.34s-.42-3.36-.86-5.64-1.07-5-1.9-8-2-6.59-3.4-10.54Z" transform="translate(-84.17 -188.84)"/><path class="cls-2" d="M292.72,450.6h-3.94v-4h3.94ZM304,476.73h-.94a10.38,10.38,0,0,1-9.81-7.28h-5.9c-3.76,0-5.64,1.6-5.64,4.75,0,2.82,2.17,4.52,5.64,4.52h6.48v4h-6.19c-6,0-9.8-3.22-9.8-8.65,0-4.49,2.67-7.82,6.8-8.51a7.61,7.61,0,0,1-1.34-4.52,7.32,7.32,0,0,1,7.46-7.67,6.16,6.16,0,0,1,5.93,3.83l-3,1.45a3.08,3.08,0,0,0-3-2c-2.24,0-3.65,1.78-3.65,4.28,0,1.91,1.16,4,2.5,4.45h.54c.83,0,2,0,3.55,0h3.29c.54,4.42,2.86,7.13,6.12,7.13h1Z" transform="translate(-84.17 -188.84)"/><path class="cls-2" d="M313.64,484.69h-4v-4.05h4Zm6.11-8H303V472.6h3.77a2.46,2.46,0,0,0,2.42-1.23,6.33,6.33,0,0,0,.43-2.75V460.3h4v8.1c0,2.14-.29,3.52-.87,4.2h6.95Z" transform="translate(-84.17 -188.84)"/><path class="cls-2" d="M353.55,476.73h-35.9V472.6h4.05c2.07,0,3.08-1.41,3.08-4.27V462h4.05v5c3.23-4.38,7.21-6.84,11.11-6.84,6.12,0,9.23,4.16,9.34,12.37h4.27Zm-8.47-4.13.08-1.16c0-4.66-2.17-7.6-5.61-7.6-4.06,0-8.36,3.77-10.61,8.76Z" transform="translate(-84.17 -188.84)"/><path class="cls-2" d="M369.18,476.73H352.61V472.6h3.76a2.47,2.47,0,0,0,2.43-1.23,6.33,6.33,0,0,0,.43-2.75V453.39h4v15c0,2.14-.29,3.52-.87,4.2h6.8Z" transform="translate(-84.17 -188.84)"/><path class="cls-2" d="M378.48,470.18c0,4.38-2,6.55-6.08,6.55h-4.27V472.6h3.44c1.34,0,2.17-.4,2.57-1.19a7.93,7.93,0,0,0,.29-2.61V453.39h4.05Z" transform="translate(-84.17 -188.84)"/><path class="cls-3" d="M386.37,468.86H540v2.88H386.37Z" transform="translate(-84.17 -188.84)"/><path class="cls-3" d="M109.17,468.86h153.6v2.88H109.17Z" transform="translate(-84.17 -188.84)"/></svg>